<?xml version="1.0" encoding="UTF-8"?>
<svg version="1.1" xmlns="http://www.w3.org/2000/svg" width="48" height="48">
<path d="M0 0 C3.20815845 -0.08774066 6.41600462 -0.14063706 9.625 -0.1875 C10.52863281 -0.21263672 11.43226562 -0.23777344 12.36328125 -0.26367188 C17.71024149 -0.32221524 21.34014531 0.05082286 26 3 C26 3.66 26 4.32 26 5 C26.66 5 27.32 5 28 5 C29.88414642 8.19457351 30.23819737 10.51502629 30.1953125 14.203125 C30.18886719 15.1828125 30.18242188 16.1625 30.17578125 17.171875 C30.15902344 18.18765625 30.14226563 19.2034375 30.125 20.25 C30.11597656 21.28125 30.10695313 22.3125 30.09765625 23.375 C30.07412011 25.91690287 30.04124023 28.4583328 30 31 C12.39344961 32.14442578 12.39344961 32.14442578 6.9609375 29.546875 C3.75922567 26.69291464 0.21348755 23.13280947 -0.22705078 18.73168945 C-0.21657715 17.86761475 -0.20610352 17.00354004 -0.1953125 16.11328125 C-0.18886719 15.17548828 -0.18242188 14.23769531 -0.17578125 13.27148438 C-0.15902344 12.29501953 -0.14226563 11.31855469 -0.125 10.3125 C-0.11597656 9.32443359 -0.10695313 8.33636719 -0.09765625 7.31835938 C-0.0740843 4.87866235 -0.04118022 2.43945303 0 0 Z M6 13 C6 14.32 6 15.64 6 17 C7.32 17 8.64 17 10 17 C10 15.68 10 14.36 10 13 C8.68 13 7.36 13 6 13 Z " fill="#FDFDFD" transform="translate(7,9)"/>
<path d="M0 0 C5.01703179 -0.09922625 10.03348652 -0.17163587 15.05126953 -0.21972656 C16.75644894 -0.23978369 18.46156006 -0.26703657 20.16650391 -0.30175781 C22.62419524 -0.35053861 25.08097366 -0.37302719 27.5390625 -0.390625 C28.29555084 -0.41127014 29.05203918 -0.43191528 29.83145142 -0.45318604 C35.78215598 -0.45568203 39.35253422 1.37139977 43.64453125 5.6328125 C47.5134514 10.57571383 48.12320965 12.6904259 48.09765625 18.9765625 C48.0962413 19.66181 48.09482635 20.3470575 48.09336853 21.05307007 C48.08776675 23.24375761 48.07521406 25.4343433 48.0625 27.625 C48.05748522 29.10937352 48.05292228 30.59374865 48.04882812 32.078125 C48.03779677 35.71878315 48.02053099 39.35938164 48 43 C43.0380205 43.17432636 38.07785949 43.30065639 33.11352539 43.38452148 C31.42863888 43.41951243 29.74396165 43.46712421 28.05981445 43.52807617 C12.28611603 44.08424509 12.28611603 44.08424509 6.52734375 39.91015625 C0.7910747 34.22345989 -0.12396928 29.85622549 -0.29296875 21.97265625 C-0.27313266 19.33445571 -0.23820136 16.69992749 -0.1875 14.0625 C-0.17242992 12.69728034 -0.15874561 11.33204465 -0.14648438 9.96679688 C-0.11126164 6.64411904 -0.06200041 3.32226819 0 0 Z M4 5 C3.8826206 8.49971199 3.81236039 11.99890955 3.75 15.5 C3.71648437 16.48226563 3.68296875 17.46453125 3.6484375 18.4765625 C3.56398244 24.81069231 4.18405971 29.78643542 8 35 C13.35103638 39.34771706 17.3402762 40.13068492 24.078125 40.09765625 C25.81835938 40.09282227 25.81835938 40.09282227 27.59375 40.08789062 C28.8003125 40.07951172 30.006875 40.07113281 31.25 40.0625 C32.47203125 40.05798828 33.6940625 40.05347656 34.953125 40.04882812 C37.96879946 40.03704815 40.98437498 40.02059853 44 40 C43.505 38.02 43.505 38.02 43 36 C41.68 36.33 40.36 36.66 39 37 C38.67 35.35 38.34 33.7 38 32 C39.98 32.33 41.96 32.66 44 33 C44.08132642 29.95778935 44.14065374 26.9177762 44.1875 23.875 C44.21263672 23.0190625 44.23777344 22.163125 44.26367188 21.28125 C44.32352063 16.09435753 44.00045435 12.43662689 41 8 C38.46857564 5.4541947 37.14988754 5.01465469 33.51660156 4.65942383 C32.14118457 4.65989577 30.76570685 4.67666632 29.390625 4.70703125 C28.30041046 4.71339851 28.30041046 4.71339851 27.18817139 4.71989441 C24.87506496 4.7366387 22.56284145 4.77428115 20.25 4.8125 C18.67839803 4.82755242 17.10678236 4.84123985 15.53515625 4.85351562 C11.68976585 4.88652805 7.84503244 4.93827944 4 5 Z " fill="#FEFEFE" transform="translate(0,2)"/>
</svg>
